{"title":"An Unfinished Life.2005.DVDRip.XViD.SWESUB.avi","uid":5514942,"size":736088064,"categoryP":"video","categoryS":"movies","magnet":"?xt=urn:btih:9b3c085ba6b1fcc6b0ab626b4285151ae6a1eaa1&amp;dn=An+Unfinished+Life.2005.DVDRip.XViD.SWESUB.avi&amp;tr=udp%3A%2F%2Ftracker.openbittorrent.com%3A80&amp;tr=udp%3A%2F%2Fopen.demonii.com%3A1337&amp;tr=udp%3A%2F%2Ftracker.coppersurfer.tk%3A6969&amp;tr=udp%3A%2F%2Fexodus.desync.com%3A6969","seeders":2,"leechers":0,"uploader":"Zen_Bud","files":-1,"time":1272218545,"description":"General\nComplete name                    : An Unfinished life.avi\nFormat                           : AVI\nFile size                        : 702 MiB\nDuration                         : 1h 43mn\nOverall bit rate                 : 950 Kbps\nWriting application              : VirtualDubMod 1.5.4.1 (build 2178/release)\nWriting library                  : VirtualDubMod build 2178/release\n\nVideo\nID                               : 0\nFormat                           : MPEG-4 Visual\nCodec ID/Hint                    : XviD\nDuration                         : 1h 43mn\nBit rate                         : 826 Kbps\nWidth                            : 640 pixels\nHeight                           : 272 pixels\nDisplay aspect ratio             : 2.35:1\nResolution                       : 8 bits\nColorimetry                      : 4:2:0\nScan type                        : Progressive\nBits/(Pixel*Frame)               : 0.190\nStream size                      : 611 MiB (87%)\nWriting library                  : XviD 1.3.0.dev55\n\nAudio\nID                               : 1\nFormat                           : MPEG Audio\nFormat version                   : Version 1\nFormat profile                   : Layer 3\nMode                             : Joint stereo\nCodec ID                         : 55\nCodec ID/Hint                    : MP3\nDuration                         : 1h 43mn\nBit rate mode                    : Variable\nBit rate                         : 111 Kbps\nNominal bit rate                 : 128 Kbps\nChannel(s)                       : 2 channels\nSampling rate                    : 48.0 KHz\nStream size                      : 81.9 MiB (12%)\nWriting library                  : LAME3.98r\nLanguage                         : English\n\n","torrent":{"xt":"urn:btih:9b3c085ba6b1fcc6b0ab626b4285151ae6a1eaa1","amp;dn":"An+Unfinished+Life.2005.DVDRip.XViD.SWESUB.avi","amp;tr":["udp%3A%2F%2Ftracker.openbittorrent.com%3A80","udp%3A%2F%2Fopen.demonii.com%3A1337","udp%3A%2F%2Ftracker.coppersurfer.tk%3A6969","udp%3A%2F%2Fexodus.desync.com%3A6969"],"infoHash":"9b3c085ba6b1fcc6b0ab626b4285151ae6a1eaa1","infoHashBuffer":{"type":"Buffer","data":[155,60,8,91,166,177,252,198,176,171,98,107,66,133,21,26,230,161,234,161]},"announce":[],"urlList":[]}}